<svg width="1440" height="287" viewBox="0 0 1440 287" fill="none" xmlns="http://www.w3.org/2000/svg">
<path d="M1179.12 300L1440.88 38.25V300H1179.12Z" fill="#FFC400"/>
<path d="M1179.12 300L1440.87 38.25L956.75 76.125L1179.12 300Z" fill="#FF9900"/>
<path d="M1179.12 300H990.125L956.75 76.125L1179.12 300Z" fill="#FFC400"/>
<path d="M866 300H990.125L956.75 76.125L866 300Z" fill="#FF9900"/>
<path d="M866 300L590 175.125L956.75 76.125L866 300Z" fill="#FFC400"/>
<path d="M866 300L590 175.125L539 300H866Z" fill="#FF9900"/>
<path d="M304.25 207.375L590 175.125L539 300L304.25 207.375Z" fill="#FFC400"/>
<path d="M304.25 207.375L590 175.125L403.625 105L304.25 207.375Z" fill="#FFC400"/>
<path d="M304.25 207.375L252.5 0L403.625 105L304.25 207.375Z" fill="#FF9900"/>
<path d="M304.25 207.375L252.5 3.05176e-05L89.375 240.75L304.25 207.375Z" fill="#FF9900"/>
<path d="M-1 69.375L252.5 3.05176e-05L89.375 240.75L-1 69.375Z" fill="#FFC400"/>
<path d="M304.25 207.375L253.25 300L89.375 240.75L304.25 207.375Z" fill="#FFC400"/>
<path d="M-1 300H253.25L89.375 240.75L-1 300Z" fill="#FFC400"/>
<path d="M-1 300V69.375L89.375 240.75L-1 300Z" fill="#FF9900"/>
<path d="M304.25 207.375L253.25 300H539L304.25 207.375Z" fill="#FF9900"/>
</svg>
