<svg width="9" height="12" viewBox="0 0 9 12" fill="none" xmlns="http://www.w3.org/2000/svg">
<path d="M4.53659 0.471851L4.53731 0.472576L7.53731 3.47258L7.53804 3.4733C7.60834 3.54302 7.66413 3.62597 7.70221 3.71737C7.74029 3.80876 7.75989 3.90679 7.75989 4.0058C7.75989 4.10481 7.74029 4.20284 7.70221 4.29423C7.66413 4.38562 7.60834 4.46858 7.53804 4.5383L7.53659 4.53975C7.46687 4.61004 7.38392 4.66584 7.29252 4.70392C7.20113 4.74199 7.1031 4.7616 7.00409 4.7616C6.90508 4.7616 6.80705 4.74199 6.71566 4.70392C6.62427 4.66584 6.54132 4.61004 6.47159 4.53975L6.47125 4.53941L4.18125 2.23941L4.00409 2.06147L3.82693 2.23941L1.53732 4.53902C1.53725 4.53909 1.53718 4.53916 1.53711 4.53922C1.39571 4.68052 1.20399 4.75989 1.00409 4.75989C0.804094 4.75989 0.612288 4.68044 0.470868 4.53902C0.329449 4.3976 0.25 4.2058 0.25 4.0058C0.25 3.8058 0.329449 3.614 0.470868 3.47258L3.47087 0.472576L3.47087 0.472577L3.47159 0.47185C3.54131 0.401553 3.62426 0.345758 3.71566 0.307681C3.80705 0.269604 3.90508 0.25 4.00409 0.25C4.1031 0.25 4.20113 0.269604 4.29252 0.307681C4.38392 0.345758 4.46687 0.401553 4.53659 0.471851Z" fill="#333333" stroke="#F7F7F7" stroke-width="0.5"/>
<path d="M4.53659 10.5397L4.53731 10.539L7.53731 7.53902L7.53804 7.5383C7.60834 7.46858 7.66413 7.38563 7.70221 7.29423C7.74029 7.20284 7.75989 7.10481 7.75989 7.0058C7.75989 6.90679 7.74029 6.80876 7.70221 6.71737C7.66413 6.62597 7.60834 6.54302 7.53804 6.4733L7.53659 6.47185C7.46687 6.40155 7.38392 6.34576 7.29252 6.30768C7.20113 6.2696 7.1031 6.25 7.00409 6.25C6.90508 6.25 6.80705 6.2696 6.71566 6.30768C6.62427 6.34576 6.54132 6.40155 6.47159 6.47185L6.47125 6.47219L4.18125 8.77219L4.00409 8.95012L3.82693 8.77219L1.53732 6.47258C1.53725 6.47251 1.53718 6.47244 1.53711 6.47237C1.39571 6.33108 1.20399 6.25171 1.00409 6.25171C0.804094 6.25171 0.612288 6.33116 0.470868 6.47258C0.329449 6.614 0.25 6.8058 0.25 7.0058C0.25 7.2058 0.329449 7.3976 0.470868 7.53902L3.47087 10.539L3.47087 10.539L3.47159 10.5397C3.54131 10.61 3.62426 10.6658 3.71566 10.7039C3.80705 10.742 3.90508 10.7616 4.00409 10.7616C4.1031 10.7616 4.20113 10.742 4.29252 10.7039C4.38392 10.6658 4.46687 10.61 4.53659 10.5397Z" fill="#333333" stroke="#F7F7F7" stroke-width="0.5"/>
</svg>
